<?xml version="1.0" encoding="utf-8"?>
<!-- Generator: Adobe Illustrator 27.5.0, SVG Export Plug-In . SVG Version: 6.00 Build 0)  -->
<svg version="1.1" id="Capa_1" xmlns="http://www.w3.org/2000/svg" xmlns:xlink="http://www.w3.org/1999/xlink" x="0px" y="0px"
	 viewBox="0 0 217.8 305.8" style="enable-background:new 0 0 217.8 305.8;" xml:space="preserve">
<style type="text/css">
	.st0{fill:#FFFFFF;}
</style>
<g>
	<path class="st0" d="M66.3,285.4c0.5-36.1,0-84-0.2-120.1c0-3.4-0.7-6.7-1.3-11.4c-6.6,5.4-12.4,9.7-17.6,14.7
		c-1.6,1.5-2.1,4.8-2.1,7.3c-0.1,29.1,0.1,58.2,0.1,87.2c0,2.2,0,4.5,0,6.8c-16.6-3.8-32.8-25.6-32.8-43.6
		c0.1-42.1,0.1-84.1,0.3-126.2c0-6-0.8-10.8-6.7-14.6c-7.8-5-6.2-13.5-5.1-21.7h43.7v69.4c7.6-6.4,14.2-11.5,20.2-17.2
		c1.4-1.3,1.3-4.6,1.3-7c0.1-14.8,0.1-29.6,0.1-44.9h33.2c0,8.3,0,16.2,0,24.2c0,9.3-0.5,18.6,0.2,27.8c0.5,7.3-1.9,12.3-7.9,16.1
		c-1.7,1.1-3.1,2.6-5.3,4.5c11.6,4.6,13.4,13.8,13.3,24.3c-0.2,45.2-0.2,90.3-0.3,135.5c0,2.2-0.2,4.3-0.5,8"/>
	<path class="st0" d="M205.8,219c1.7,18.2-6.6,31.8-19.6,43.2c-4.8,4.2-9.8,8.2-15.2,11.6c-15.6,9.9-31.5,19.6-47.3,29.3
		c-1.2,0.7-2.4,1.3-5.2,2.7c0-9.2,0-17.1,0-25c0-26-0.2-52,0-77.9c0-3,1-7.1,3-8.9c9-8,18.7-15.3,29.4-23.9c0,26.9,0,52.1,0,77.5
		c13.5-3.3,21.4-14.3,21.4-29.5c0.1-24.7,0-49.5,0-74.2c0-15.7,0-31.3,0-47c0-2,0-4,0-6.6c-17.9,0-35.1,0-52.8,0c0-9,0-17.3,0-26.2
		c32.3,0,64.7,0,97.7,0c0.5,8.8,2.5,17.5-7.7,23.2c-2.6,1.4-4.3,6.6-4.4,10.1"/>
	<path class="st0" d="M122.7,23.4c1-6.5,2-12.6,2.7-18.7c0.4-3.3,1.7-4.6,5.2-4.5c6,0.2,12,0.1,18.5,0.1c1.9,0,3.5,1.3,3.9,3.2
		c1.2,6.3,2.5,12.5,3.8,19c0.1,0.3,0.3,0.4,0.5,0.4h26c0.3,0,0.5-0.2,0.5-0.5c0.8-5.5,1.7-11,2.2-16.5c0.3-4.3,1.7-6.2,6.4-5.9
		l10.1,0c11.6,0.7,10.8,9.7,12.2,21.2c0.9,7.9,1.9,15.8,2.8,23.9c0,0.3-0.2,0.6-0.5,0.6H1c-0.3,0-0.6-0.3-0.5-0.6
		C1.8,34,3.1,22.9,4.4,11.6c0.7-6.1,5.9-10.7,12-10.7l14.1,0c0.3,0,0.5,0.5,0.5,0.5c1,6.9,2,13.7,3.1,21.1c0,0.3,0.3,0.5,0.5,0.5
		c8,0,15.8,0.2,23.7-0.2c1.3-0.1,3.1-2.4,3.6-3.9c1.2-4.6,2.2-9.2,2.6-13.9c0.5-4.6,3-4,7.9-4.4C77.2,0,80.8,0,85.3,0.2
		c4.8,0.2,6.8,0.4,7.1,4.6c0.3,4.3,1.5,13.7,1.7,18"/>
	<path class="st0" d="M216.9,52c0,2,0,3.8,0,5.9H0.5c0.4-6.5,0,1.6,0.4-6.5"/>
</g>
</svg>
