<?xml version="1.0" encoding="utf-8"?>
<!-- Generator: Adobe Illustrator 27.5.0, SVG Export Plug-In . SVG Version: 6.00 Build 0)  -->
<svg version="1.1" id="Capa_1" xmlns="http://www.w3.org/2000/svg" xmlns:xlink="http://www.w3.org/1999/xlink" x="0px" y="0px"
	 viewBox="0 0 197 201" style="enable-background:new 0 0 197 201;" xml:space="preserve">
<style type="text/css">
	.st0{fill:#FFFFFF;}
</style>
<g>
	<path class="st0" d="M141.9,147.9c0,1.2,0,2.2,0,3.5c-6.6,0-13,0.1-19.3-0.1c-0.8,0-1.9-0.8-2.4-1.5c-9.4-14.2-20.5-27-32-39.5
		c-1.3-1.4-2-3.8-2.2-5.7c-0.3-4.7-0.1-9.4-0.1-14.1c0-6.9-1.1-8.3-7.9-9.7c-1-0.2-2-0.4-3.2-0.6c-0.1-1-0.1-1.9-0.2-3.2
		c10.7,0,21.3,0,32.1,0c0,1.1,0,2,0,3c-0.2,0.1-0.4,0.3-0.6,0.3c-9,1.7-9.1,1.7-9.1,10.8c0,3.3-0.2,6.7,0.1,10
		c0.1,1.5,0.9,3,1.8,5.5c7.1-7.7,13.4-14.4,19.6-21.3c1.9-2.1,1.2-3.7-1.6-4.5c-1.8-0.5-3.8-0.5-5.9-0.7c0-1,0-2,0-3.1
		c8.9,0,17.7,0,26.8,0c0.1,1,0.1,2,0.2,2.8c-0.3,0.2-0.5,0.5-0.7,0.5c-5.1,0.7-9.3,3.3-12.9,6.8c-7.3,7.2-14.4,14.8-21.8,22.4
		c2.8,3.3,5.5,6.5,8.2,9.7c5.7,6.9,11.2,13.9,16.9,20.8C131.3,144.5,135.6,147.7,141.9,147.9z"/>
	<path class="st0" d="M85.9,113c3.8,4.2,6.9,7.5,10,10.9c0.5,0.6,1,1.3,1.1,2.1c2,20.6-13.6,30.9-29.6,26.6
		c-8.5-2.3-13.5-10.4-12.1-19.1c0.8-4.9,4.7-7.7,9-6.5c4,1.1,5.9,4.5,4.4,8.6c-0.9,2.4-2.3,4.8-3.7,6.9c-1.6,2.4-0.9,3.9,1.3,5.3
		c6.8,4.4,15.6,1.7,17.7-6.1c1.4-5.1,1.5-10.6,1.8-16C86.1,121.8,85.9,117.9,85.9,113z"/>
</g>
<g>
	<path class="st0" d="M113.1,57.7c-1.2-2.2-1.2-3.8,0.3-5c1.2-1,2.9-1,4.1,0c1.2,0.9,1.5,2.7,0.9,4c-0.8,1.5-2.3,2.1-4.5,1.5
		c-3,4.1-5.4,8.5-7.1,13.3c-16.9-2.4-18.8-0.5-33.5,0c-1-2.3-2-4.6-3.2-6.9c-1.2-2.2-2.6-4.3-3.9-6.4c-2.5,0.6-4,0-4.7-1.6
		c-0.6-1.4-0.1-3.1,1.1-3.9c1.2-0.9,3-0.8,4.1,0.3c1.3,1.2,1.4,2.8,0.1,4.8c3.8,3,7.6,5.9,12.9,4.8c2.9-0.6,4.9-2.6,6.2-5.1
		c1.2-2.4,2.1-4.9,3.2-7.4c-1.6-1.1-2.6-2.2-2.1-4c0.3-1.4,1.4-2.4,2.9-2.5c1.4-0.1,2.7,0.7,3.2,2c0.5,1.3,0.3,2.9-0.9,3.7
		c-0.8,0.6-0.9,1.2-0.5,1.9c1.1,2.4,1.8,5,3.2,7.3c2.6,4.2,6.5,5.3,11.2,3.8C108.6,61.2,110.9,59.6,113.1,57.7z"/>
	<path class="st0" d="M74.5,75.4c-0.3-0.7-0.7-1.3-1.1-2.2c2.3-0.3,4.5-0.7,6.8-0.9c7.8-0.7,15.6-0.6,23.3,0.5
		c2.7,0.4,2.7,0.4,2.1,1.7c-0.2,0.3-0.3,0.6-0.4,0.9C94.9,74,84.7,74.1,74.5,75.4z"/>
	<path class="st0" d="M101.6,61.8c-1.6-0.8-3-1.4-4.5-2.1c1.6-1.9,2.9-3.6,4.3-5.2c-1.3-1.9-1.4-3.2-0.3-4.2c0.9-0.9,2-1.1,3.1-0.5
		c1,0.5,1.6,1.5,1.5,2.8c-0.1,1.1-0.9,2.1-2,2.2c-0.9,0.1-1.2,0.5-1.3,1.4C102.1,57.8,101.8,59.5,101.6,61.8z"/>
	<path class="st0" d="M82.4,59.4c-1.2,1.2-2.6,1.9-4.4,2c-0.3-2.2-0.5-4.4-0.8-6.5c-2.3-0.5-3.1-1.1-3.3-2.6
		c-0.1-1.1,0.6-2.3,1.7-2.8c1.1-0.4,2.4-0.1,3.1,0.9c0.8,1.1,0.7,2.3-0.5,4C79.6,56,81,57.7,82.4,59.4z"/>
</g>
</svg>
