<?xml version="1.0" encoding="utf-8"?>
<!-- Generator: Adobe Illustrator 27.5.0, SVG Export Plug-In . SVG Version: 6.00 Build 0)  -->
<svg version="1.1" id="Capa_1" xmlns="http://www.w3.org/2000/svg" xmlns:xlink="http://www.w3.org/1999/xlink" x="0px" y="0px"
	 viewBox="0 0 612 656.3" style="enable-background:new 0 0 612 656.3;" xml:space="preserve">
<g>
	<path d="M239.7,291.7c0.4,2.1,2.2,3.2,3.7,4.5c13.6,12.1,27.3,24.1,41,36.2c6.1,5.4,6.1,5.4,6.1,13.6c0,85.9,0,171.9-0.1,257.8
		c0,1.8,0.2,3.6-0.4,5.7c-1.1-0.4-2-0.7-2.8-1.1c-4.4-2.6-9-5-13.3-7.8c-13.2-8.6-26.3-17.3-39.4-25.9c-3.2-2.1-4.7-4.8-4.7-8.7
		c0.1-7.5,0-14.9,0-22.4c0-60.1,0-120.2,0.1-180.3c0-2.6-0.7-4.3-2.6-6c-15.1-13.2-30.1-26.5-45-39.8c-2.8-2.5-5.7-3.1-9.2-2.3
		c-1.4,0.3-2.9,0.7-4.3,1.2c-2,0.7-2.7,1.6-2.6,3.7c0.1,2.8,0.4,5.6,0.4,8.4c0.1,15.4,0.1,30.8,0.2,46.2
		c0.1,42.1,0.2,84.1,0.4,126.2c0,5.3,0.1,10.6,0.1,15.9c0,1-0.2,1.9-0.3,3.3c-1-0.4-1.8-0.6-2.4-1.1c-1.6-1.4-3.2-2.9-4.7-4.4
		c-7.5-7.2-15.2-14.3-22.6-21.7c-4.9-4.9-9.4-10.2-14.1-15.3c-3.1-3.4-6.1-7-9.6-10.1c-5.5-4.9-7.6-10.9-7.5-18.1
		c0.2-14.7,0.1-29.5,0.1-44.2c0-104.3,0-208.6,0-313c0-1.8,0-3.6,0-5.5c0-3.1,1.6-4.9,4.5-5.7c0.6-0.2,1.3-0.4,1.9-0.5
		c16.2-3.6,32.3-7.1,48.5-10.6c0.5-0.1,1-0.2,1.5-0.3c3.1-0.4,4,0.3,4.2,3.3c0.1,2.8,0,5.6,0,8.4c0,2-0.1,4-0.1,6
		c0,56.3,0,112.6,0,168.9c0,2.4-0.3,5,0.8,7.6c0.9,0.1,1.8,0.4,2.8,0.4c8.5-0.2,16.3-2.7,23-8.1c1.6-1.2,3.1-2.5,4.5-3.9
		c9.6-8.6,19.2-17.3,28.9-25.8c2.8-2.4,3.9-4.9,3.9-8.5c-0.2-32-0.2-63.9-0.2-95.9c0-18.4-0.1-36.8-0.1-55.1c0-6.5,0.8-7.5,7.2-8.1
		c4.3-0.4,8.6-0.6,12.9-0.9c11.1-0.8,22.1-1.7,33.2-2.4c6.7-0.4,7,0,7,6.8c0,41.1,0,82.1,0.1,123.2c0,17.4,0.1,34.8,0.1,52.2
		c0,1.3,0,2.6,0,4c0,2.5-1,4.5-2.8,6.1c-0.7,0.7-1.5,1.3-2.2,2c-14.1,12.5-28.2,25.1-42.3,37.6C241.6,288.7,240,289.7,239.7,291.7z"
		/>
	<path d="M321.8,609.9c0-2.3,0-3.6,0-4.9c0-76.5,0-153-0.1-229.5c0-1.3,0-2.7,0.1-4c0.2-1.6,1-2.4,2.5-2.5c1-0.1,2-0.1,3,0
		c12.4,0.9,24.8,1.8,37.1,2.8c3.6,0.3,7.3,0.7,10.9,1c0.8,0.1,1.6,0.2,2.5,0.4c3.3,0.7,4.2,1.6,4.3,5c0.2,3,0.1,6,0.1,8.9
		c-0.1,36.8-0.1,73.5-0.2,110.3c0,1.8-0.5,3.7,1.4,5.3c0.6-0.3,1.4-0.5,2-0.9c0.7-0.5,1.3-1.1,1.9-1.6
		c16.6-15.4,33.2-30.9,49.8-46.3c1.7-1.6,3.4-3.2,5-4.8c2-1.9,3.2-4.2,3.4-7c0.1-2.1,0.3-4.3,0.3-6.4c0-5-0.1-9.9-0.1-14.9
		c-0.1-55-0.1-109.9-0.2-164.9c0-12.1,0.3-24.2,0.3-36.3c0-12.1-0.3-24.2-0.3-36.3c-0.1-16.6,0-33.1,0-49.7c0-3,0.2-6,0.2-8.9
		c0-3.8-0.7-4.8-4.3-5.5c-7-1.4-14-2.7-21-3.9c-10.6-1.7-21.3-3.1-31.9-4.7c-0.8-0.1-1.6-0.2-2.5-0.2c-2.2,0-3.4,1-3.7,3.2
		c-0.2,1.8-0.2,3.6-0.2,5.4c0.1,33.9,0.1,67.9,0.2,101.8c0,1.7,0,3.3-0.2,5c-0.2,1.9-1,2.6-2.9,2.6c-1.5,0-3-0.2-4.5-0.3
		c-10.7-0.9-21.4-1.8-32.2-2.7c-5.1-0.4-10.2-0.7-15.4-1.1c-0.8-0.1-1.6-0.2-2.4-0.4c-1.8-0.5-2.9-1.6-3-3.5c-0.1-1.3-0.1-2.6-0.1-4
		c0-51.3,0-102.7,0-154c0-1.5,0-3,0.2-4.5c0.2-1.6,1-2.4,2.5-2.6c0.8-0.1,1.6-0.2,2.5-0.2c8.9,0.5,17.8,1,26.8,1.7
		c9.2,0.7,18.5,1.5,27.7,2.6c12,1.3,24,2.7,36,4.4c26.5,3.8,52.8,9.3,78.9,15.5c2.1,0.5,4.2,1,6.2,1.6c2.3,0.7,3.5,2.3,3.6,4.8
		c0,0.8,0.1,1.7,0.1,2.5c0,108.6-0.1,217.3-0.2,325.9c0,12.4-0.1,24.8,0.1,37.3c0.1,5.1-1.5,9.3-5,13
		c-12.1,13.2-24.3,26.3-37.2,38.7c-4.9,4.7-10,9.2-15,13.7c-5.8,5.2-11.6,10.4-17.4,15.6c-2.7,2.4-5.3,5-8.2,7.2
		c-24.2,19.1-48.8,37.5-74.8,54.1c-7.1,4.6-14.4,8.9-21.6,13.3C325.6,608,324.1,608.7,321.8,609.9z"/>
</g>
</svg>
