<?xml version="1.0" encoding="utf-8"?>
<!-- Generator: Adobe Illustrator 27.5.0, SVG Export Plug-In . SVG Version: 6.00 Build 0)  -->
<svg version="1.1" id="Capa_1" xmlns="http://www.w3.org/2000/svg" xmlns:xlink="http://www.w3.org/1999/xlink" x="0px" y="0px"
	 viewBox="0 0 197 201" style="enable-background:new 0 0 197 201;" xml:space="preserve">
<style type="text/css">
	.st0{display:none;fill:#FFFFFF;}
</style>
<text transform="matrix(1 0 0 1 -735 -251)" style="font-family:'NoeDisplay-Black'; font-size:140px; letter-spacing:-2;">Kristopher</text>
<text transform="matrix(1 0 0 1 -1 -251)" style="font-family:'NoeDisplay-Black'; font-size:140px; letter-spacing:-2;">Jafeth</text>
<text transform="matrix(1.0381 0 0 1 -713.9995 -157.2202)" style="font-family:'NoeDisplay-Black'; font-size:71.4497px; letter-spacing:-0.96;">Desarrollo de Aplicaciones Web</text>
<g>
	<path class="st0" d="M7.3,101.68c0-16.4-0.04-32.8,0.01-49.2C7.38,29.88,25.6,11.56,48.26,11.51c32.56-0.07,65.11-0.04,97.67,0.1
		c23.23,0.1,41.21,18.22,41.23,41.4c0.04,32.56,0,65.11-0.01,97.67c-0.01,22.34-17.73,40.79-40.14,41
		c-33.4,0.31-66.8,0.32-100.2,0.08c-21.37-0.15-39.43-18.8-39.51-40.15C7.24,134.96,7.29,118.32,7.3,101.68z"/>
	<path d="M144.83,143.98c0,1.3,0,2.32,0,3.7c-6.9,0-13.63,0.06-20.35-0.07c-0.86-0.02-2.01-0.8-2.52-1.57
		c-9.86-14.95-21.61-28.35-33.66-41.52c-1.36-1.49-2.14-3.95-2.28-6.01c-0.33-4.92-0.11-9.88-0.11-14.83c0-7.28-1.17-8.7-8.36-10.15
		c-1.06-0.21-2.13-0.41-3.38-0.65c-0.06-1-0.12-2.05-0.19-3.34c11.3,0,22.45,0,33.76,0c0,1.11,0,2.14,0,3.16
		c-0.24,0.13-0.42,0.3-0.63,0.34c-9.51,1.8-9.53,1.81-9.53,11.35c0,3.5-0.16,7.01,0.08,10.49c0.11,1.6,0.99,3.15,1.88,5.8
		c7.43-8.05,14.1-15.13,20.58-22.38c1.96-2.2,1.26-3.94-1.68-4.75c-1.93-0.53-4.01-0.52-6.2-0.77c0-1.03,0-2.06,0-3.26
		c9.38,0,18.61,0,28.14,0c0.06,1.05,0.11,2.06,0.16,2.96c-0.36,0.26-0.53,0.48-0.72,0.51c-5.4,0.69-9.83,3.47-13.53,7.12
		c-7.71,7.61-15.11,15.54-22.88,23.58c2.93,3.46,5.82,6.79,8.61,10.2c5.95,7.28,11.79,14.65,17.78,21.88
		C133.61,140.34,138.18,143.74,144.83,143.98z"/>
	<path d="M85.92,107.23c4.02,4.37,7.28,7.88,10.49,11.45c0.53,0.59,1.07,1.4,1.14,2.16c2.14,21.7-14.32,32.51-31.1,27.96
		c-8.97-2.43-14.2-10.94-12.7-20.05c0.86-5.2,4.93-8.14,9.49-6.86c4.2,1.18,6.18,4.71,4.63,9.01c-0.93,2.57-2.38,5.01-3.9,7.3
		c-1.68,2.53-0.97,4.05,1.35,5.57c7.12,4.67,16.41,1.82,18.6-6.42c1.43-5.39,1.55-11.16,1.94-16.78
		C86.15,116.5,85.92,112.41,85.92,107.23z"/>
</g>
<g>
	<path d="M114.47,49.08c-1.31-2.3-1.21-3.97,0.28-5.21c1.21-1.01,3.05-1.03,4.29-0.04c1.23,0.97,1.62,2.8,0.91,4.2
		c-0.83,1.63-2.46,2.18-4.72,1.53c-3.2,4.26-5.69,8.93-7.49,13.99C90,61,88,63,72.46,63.5c-1.1-2.4-2.11-4.89-3.37-7.24
		c-1.24-2.32-2.73-4.51-4.08-6.7c-2.63,0.6-4.2,0.03-4.97-1.7c-0.64-1.44-0.15-3.23,1.14-4.14c1.31-0.92,3.13-0.81,4.28,0.27
		c1.37,1.27,1.43,2.95,0.08,5.1c4,3.15,8.03,6.21,13.61,5.09c3.06-0.62,5.12-2.72,6.49-5.34c1.31-2.5,2.24-5.2,3.35-7.83
		c-1.7-1.12-2.69-2.33-2.25-4.21c0.34-1.47,1.52-2.49,3-2.63c1.44-0.13,2.86,0.73,3.41,2.08c0.56,1.36,0.27,3.04-0.93,3.86
		c-0.88,0.61-0.91,1.21-0.56,2.04c1.11,2.57,1.94,5.31,3.4,7.65c2.75,4.39,6.84,5.61,11.78,3.96
		C109.76,52.79,112.21,51.08,114.47,49.08z"/>
	<path d="M73.95,67.67c-0.35-0.69-0.72-1.41-1.17-2.29c2.39-0.31,4.72-0.7,7.13-0.91c8.24-0.73,16.43-0.64,24.51,0.5
		c2.81,0.39,2.81,0.4,2.18,1.75c-0.16,0.34-0.32,0.67-0.47,0.96C95.37,66.27,84.7,66.28,73.95,67.67z"/>
	<path d="M102.38,53.37c-1.71-0.81-3.2-1.52-4.74-2.25c1.65-2.01,3.09-3.76,4.49-5.46c-1.38-1.97-1.44-3.32-0.32-4.45
		c0.91-0.91,2.06-1.12,3.25-0.57c1.1,0.5,1.71,1.63,1.58,2.9c-0.13,1.17-0.93,2.17-2.15,2.34c-0.95,0.13-1.31,0.53-1.39,1.44
		C102.92,49.18,102.66,51.02,102.38,53.37z"/>
	<path d="M82.26,50.91c-1.31,1.24-2.77,2-4.58,2.09c-0.29-2.36-0.57-4.63-0.84-6.85c-2.42-0.48-3.27-1.19-3.43-2.73
		c-0.12-1.18,0.67-2.43,1.82-2.9c1.15-0.46,2.49-0.07,3.26,0.95c0.88,1.17,0.74,2.45-0.57,4.16C79.32,47.33,80.75,49.07,82.26,50.91
		z"/>
</g>
</svg>
